<mxfile host="app.diagrams.net" modified="2024-05-13T16:35:24.668Z" agent="Mozilla/5.0 (Windows NT 10.0; Win64; x64) AppleWebKit/537.36 (KHTML, like Gecko) Chrome/124.0.0.0 Safari/537.36" etag="y21O-8rypL_weoW015Zk" version="24.4.0" type="github">
  <diagram id="C5RBs43oDa-KdzZeNtuy" name="Page-1">
    <mxGraphModel dx="1877" dy="522" grid="1" gridSize="10" guides="1" tooltips="1" connect="1" arrows="1" fold="1" page="1" pageScale="1" pageWidth="827" pageHeight="1169" math="0" shadow="0">
      <root>
        <mxCell id="WIyWlLk6GJQsqaUBKTNV-0" />
        <mxCell id="WIyWlLk6GJQsqaUBKTNV-1" parent="WIyWlLk6GJQsqaUBKTNV-0" />
        <mxCell id="ZlSOmMxpBwmq8ZwxbkZ--15" style="edgeStyle=orthogonalEdgeStyle;rounded=0;orthogonalLoop=1;jettySize=auto;html=1;exitX=0.5;exitY=1;exitDx=0;exitDy=0;entryX=0.5;entryY=0;entryDx=0;entryDy=0;" edge="1" parent="WIyWlLk6GJQsqaUBKTNV-1" source="ZlSOmMxpBwmq8ZwxbkZ--0" target="ZlSOmMxpBwmq8ZwxbkZ--1">
          <mxGeometry relative="1" as="geometry" />
        </mxCell>
        <mxCell id="ZlSOmMxpBwmq8ZwxbkZ--0" value="注册" style="rounded=0;whiteSpace=wrap;html=1;" vertex="1" parent="WIyWlLk6GJQsqaUBKTNV-1">
          <mxGeometry x="90" y="115" width="70" height="30" as="geometry" />
        </mxCell>
        <mxCell id="ZlSOmMxpBwmq8ZwxbkZ--13" style="edgeStyle=orthogonalEdgeStyle;rounded=0;orthogonalLoop=1;jettySize=auto;html=1;exitX=1;exitY=0.5;exitDx=0;exitDy=0;entryX=0;entryY=0.5;entryDx=0;entryDy=0;" edge="1" parent="WIyWlLk6GJQsqaUBKTNV-1" source="ZlSOmMxpBwmq8ZwxbkZ--1" target="ZlSOmMxpBwmq8ZwxbkZ--12">
          <mxGeometry relative="1" as="geometry" />
        </mxCell>
        <mxCell id="ZlSOmMxpBwmq8ZwxbkZ--17" style="edgeStyle=orthogonalEdgeStyle;rounded=0;orthogonalLoop=1;jettySize=auto;html=1;exitX=0;exitY=0.5;exitDx=0;exitDy=0;" edge="1" parent="WIyWlLk6GJQsqaUBKTNV-1" source="ZlSOmMxpBwmq8ZwxbkZ--1">
          <mxGeometry relative="1" as="geometry">
            <mxPoint x="50.00000000000023" y="205" as="targetPoint" />
          </mxGeometry>
        </mxCell>
        <mxCell id="ZlSOmMxpBwmq8ZwxbkZ--39" style="edgeStyle=orthogonalEdgeStyle;rounded=0;orthogonalLoop=1;jettySize=auto;html=1;exitX=0.5;exitY=1;exitDx=0;exitDy=0;entryX=0.5;entryY=0;entryDx=0;entryDy=0;" edge="1" parent="WIyWlLk6GJQsqaUBKTNV-1" source="ZlSOmMxpBwmq8ZwxbkZ--1" target="ZlSOmMxpBwmq8ZwxbkZ--37">
          <mxGeometry relative="1" as="geometry" />
        </mxCell>
        <mxCell id="ZlSOmMxpBwmq8ZwxbkZ--40" style="edgeStyle=orthogonalEdgeStyle;rounded=0;orthogonalLoop=1;jettySize=auto;html=1;exitX=0.5;exitY=1;exitDx=0;exitDy=0;entryX=0.5;entryY=0;entryDx=0;entryDy=0;" edge="1" parent="WIyWlLk6GJQsqaUBKTNV-1" source="ZlSOmMxpBwmq8ZwxbkZ--1" target="ZlSOmMxpBwmq8ZwxbkZ--36">
          <mxGeometry relative="1" as="geometry" />
        </mxCell>
        <mxCell id="ZlSOmMxpBwmq8ZwxbkZ--83" style="edgeStyle=orthogonalEdgeStyle;rounded=0;orthogonalLoop=1;jettySize=auto;html=1;exitX=0.5;exitY=1;exitDx=0;exitDy=0;entryX=0.5;entryY=0;entryDx=0;entryDy=0;" edge="1" parent="WIyWlLk6GJQsqaUBKTNV-1" source="ZlSOmMxpBwmq8ZwxbkZ--1" target="ZlSOmMxpBwmq8ZwxbkZ--82">
          <mxGeometry relative="1" as="geometry" />
        </mxCell>
        <mxCell id="ZlSOmMxpBwmq8ZwxbkZ--1" value="登录" style="rounded=0;whiteSpace=wrap;html=1;" vertex="1" parent="WIyWlLk6GJQsqaUBKTNV-1">
          <mxGeometry x="90" y="190" width="70" height="30" as="geometry" />
        </mxCell>
        <mxCell id="ZlSOmMxpBwmq8ZwxbkZ--4" style="edgeStyle=orthogonalEdgeStyle;rounded=0;orthogonalLoop=1;jettySize=auto;html=1;exitX=0.5;exitY=1;exitDx=0;exitDy=0;entryX=0.5;entryY=0;entryDx=0;entryDy=0;" edge="1" parent="WIyWlLk6GJQsqaUBKTNV-1" source="ZlSOmMxpBwmq8ZwxbkZ--2" target="ZlSOmMxpBwmq8ZwxbkZ--0">
          <mxGeometry relative="1" as="geometry" />
        </mxCell>
        <mxCell id="ZlSOmMxpBwmq8ZwxbkZ--2" value="用户" style="ellipse;whiteSpace=wrap;html=1;aspect=fixed;" vertex="1" parent="WIyWlLk6GJQsqaUBKTNV-1">
          <mxGeometry x="105" y="40" width="40" height="40" as="geometry" />
        </mxCell>
        <mxCell id="ZlSOmMxpBwmq8ZwxbkZ--33" style="edgeStyle=orthogonalEdgeStyle;rounded=0;orthogonalLoop=1;jettySize=auto;html=1;exitX=1;exitY=0.5;exitDx=0;exitDy=0;entryX=0;entryY=0.5;entryDx=0;entryDy=0;endArrow=none;endFill=0;startArrow=classic;startFill=1;" edge="1" parent="WIyWlLk6GJQsqaUBKTNV-1" source="ZlSOmMxpBwmq8ZwxbkZ--3" target="ZlSOmMxpBwmq8ZwxbkZ--21">
          <mxGeometry relative="1" as="geometry" />
        </mxCell>
        <mxCell id="ZlSOmMxpBwmq8ZwxbkZ--34" style="edgeStyle=orthogonalEdgeStyle;rounded=0;orthogonalLoop=1;jettySize=auto;html=1;exitX=1;exitY=0.5;exitDx=0;exitDy=0;entryX=0;entryY=0.5;entryDx=0;entryDy=0;endArrow=none;endFill=0;startArrow=classic;startFill=1;" edge="1" parent="WIyWlLk6GJQsqaUBKTNV-1" source="ZlSOmMxpBwmq8ZwxbkZ--3" target="ZlSOmMxpBwmq8ZwxbkZ--22">
          <mxGeometry relative="1" as="geometry" />
        </mxCell>
        <mxCell id="ZlSOmMxpBwmq8ZwxbkZ--35" style="edgeStyle=orthogonalEdgeStyle;rounded=0;orthogonalLoop=1;jettySize=auto;html=1;exitX=1;exitY=0.5;exitDx=0;exitDy=0;entryX=0;entryY=0.5;entryDx=0;entryDy=0;startArrow=classic;startFill=1;endArrow=none;endFill=0;" edge="1" parent="WIyWlLk6GJQsqaUBKTNV-1" source="ZlSOmMxpBwmq8ZwxbkZ--3" target="ZlSOmMxpBwmq8ZwxbkZ--23">
          <mxGeometry relative="1" as="geometry" />
        </mxCell>
        <mxCell id="ZlSOmMxpBwmq8ZwxbkZ--3" value="用户表" style="shape=dataStorage;whiteSpace=wrap;html=1;fixedSize=1;" vertex="1" parent="WIyWlLk6GJQsqaUBKTNV-1">
          <mxGeometry x="-260" y="110" width="80" height="40" as="geometry" />
        </mxCell>
        <mxCell id="ZlSOmMxpBwmq8ZwxbkZ--10" style="edgeStyle=orthogonalEdgeStyle;rounded=0;orthogonalLoop=1;jettySize=auto;html=1;exitX=1;exitY=0.5;exitDx=0;exitDy=0;entryX=0;entryY=0.5;entryDx=0;entryDy=0;" edge="1" parent="WIyWlLk6GJQsqaUBKTNV-1" source="ZlSOmMxpBwmq8ZwxbkZ--7" target="ZlSOmMxpBwmq8ZwxbkZ--8">
          <mxGeometry relative="1" as="geometry" />
        </mxCell>
        <mxCell id="ZlSOmMxpBwmq8ZwxbkZ--7" value="参加公益活动" style="rounded=0;whiteSpace=wrap;html=1;" vertex="1" parent="WIyWlLk6GJQsqaUBKTNV-1">
          <mxGeometry x="290" y="190" width="70" height="30" as="geometry" />
        </mxCell>
        <mxCell id="ZlSOmMxpBwmq8ZwxbkZ--8" value="&lt;div&gt;用户参&lt;/div&gt;&lt;div&gt;与&lt;span style=&quot;background-color: initial;&quot;&gt;活动表&lt;/span&gt;&lt;/div&gt;" style="shape=dataStorage;whiteSpace=wrap;html=1;fixedSize=1;" vertex="1" parent="WIyWlLk6GJQsqaUBKTNV-1">
          <mxGeometry x="400" y="185" width="90" height="40" as="geometry" />
        </mxCell>
        <mxCell id="ZlSOmMxpBwmq8ZwxbkZ--14" style="edgeStyle=orthogonalEdgeStyle;rounded=0;orthogonalLoop=1;jettySize=auto;html=1;exitX=1;exitY=0.5;exitDx=0;exitDy=0;entryX=0;entryY=0.5;entryDx=0;entryDy=0;" edge="1" parent="WIyWlLk6GJQsqaUBKTNV-1" source="ZlSOmMxpBwmq8ZwxbkZ--12" target="ZlSOmMxpBwmq8ZwxbkZ--7">
          <mxGeometry relative="1" as="geometry" />
        </mxCell>
        <mxCell id="ZlSOmMxpBwmq8ZwxbkZ--12" value="查看公益活动" style="rounded=0;whiteSpace=wrap;html=1;" vertex="1" parent="WIyWlLk6GJQsqaUBKTNV-1">
          <mxGeometry x="190" y="190" width="70" height="30" as="geometry" />
        </mxCell>
        <mxCell id="ZlSOmMxpBwmq8ZwxbkZ--19" style="edgeStyle=orthogonalEdgeStyle;rounded=0;orthogonalLoop=1;jettySize=auto;html=1;exitX=0.5;exitY=0;exitDx=0;exitDy=0;entryX=0.5;entryY=1;entryDx=0;entryDy=0;" edge="1" parent="WIyWlLk6GJQsqaUBKTNV-1" source="ZlSOmMxpBwmq8ZwxbkZ--16" target="ZlSOmMxpBwmq8ZwxbkZ--18">
          <mxGeometry relative="1" as="geometry" />
        </mxCell>
        <mxCell id="ZlSOmMxpBwmq8ZwxbkZ--16" value="查看个人信息" style="rounded=0;whiteSpace=wrap;html=1;" vertex="1" parent="WIyWlLk6GJQsqaUBKTNV-1">
          <mxGeometry x="-20" y="190" width="70" height="30" as="geometry" />
        </mxCell>
        <mxCell id="ZlSOmMxpBwmq8ZwxbkZ--24" style="edgeStyle=orthogonalEdgeStyle;rounded=0;orthogonalLoop=1;jettySize=auto;html=1;exitX=0;exitY=0.5;exitDx=0;exitDy=0;entryX=1;entryY=0.5;entryDx=0;entryDy=0;" edge="1" parent="WIyWlLk6GJQsqaUBKTNV-1" source="ZlSOmMxpBwmq8ZwxbkZ--18" target="ZlSOmMxpBwmq8ZwxbkZ--20">
          <mxGeometry relative="1" as="geometry" />
        </mxCell>
        <mxCell id="ZlSOmMxpBwmq8ZwxbkZ--25" style="edgeStyle=orthogonalEdgeStyle;rounded=0;orthogonalLoop=1;jettySize=auto;html=1;exitX=0;exitY=0.5;exitDx=0;exitDy=0;entryX=1;entryY=0.5;entryDx=0;entryDy=0;" edge="1" parent="WIyWlLk6GJQsqaUBKTNV-1" source="ZlSOmMxpBwmq8ZwxbkZ--18" target="ZlSOmMxpBwmq8ZwxbkZ--21">
          <mxGeometry relative="1" as="geometry" />
        </mxCell>
        <mxCell id="ZlSOmMxpBwmq8ZwxbkZ--26" style="edgeStyle=orthogonalEdgeStyle;rounded=0;orthogonalLoop=1;jettySize=auto;html=1;exitX=0;exitY=0.5;exitDx=0;exitDy=0;entryX=1;entryY=0.5;entryDx=0;entryDy=0;" edge="1" parent="WIyWlLk6GJQsqaUBKTNV-1" source="ZlSOmMxpBwmq8ZwxbkZ--18" target="ZlSOmMxpBwmq8ZwxbkZ--22">
          <mxGeometry relative="1" as="geometry" />
        </mxCell>
        <mxCell id="ZlSOmMxpBwmq8ZwxbkZ--27" style="edgeStyle=orthogonalEdgeStyle;rounded=0;orthogonalLoop=1;jettySize=auto;html=1;exitX=0;exitY=0.5;exitDx=0;exitDy=0;entryX=1;entryY=0.5;entryDx=0;entryDy=0;" edge="1" parent="WIyWlLk6GJQsqaUBKTNV-1" source="ZlSOmMxpBwmq8ZwxbkZ--18" target="ZlSOmMxpBwmq8ZwxbkZ--23">
          <mxGeometry relative="1" as="geometry" />
        </mxCell>
        <mxCell id="ZlSOmMxpBwmq8ZwxbkZ--18" value="修改个人信息" style="rounded=0;whiteSpace=wrap;html=1;" vertex="1" parent="WIyWlLk6GJQsqaUBKTNV-1">
          <mxGeometry x="-20" y="115" width="70" height="30" as="geometry" />
        </mxCell>
        <mxCell id="ZlSOmMxpBwmq8ZwxbkZ--31" style="edgeStyle=orthogonalEdgeStyle;rounded=0;orthogonalLoop=1;jettySize=auto;html=1;exitX=0;exitY=0.5;exitDx=0;exitDy=0;entryX=1;entryY=0.5;entryDx=0;entryDy=0;" edge="1" parent="WIyWlLk6GJQsqaUBKTNV-1" source="ZlSOmMxpBwmq8ZwxbkZ--20" target="ZlSOmMxpBwmq8ZwxbkZ--3">
          <mxGeometry relative="1" as="geometry" />
        </mxCell>
        <mxCell id="ZlSOmMxpBwmq8ZwxbkZ--20" value="修改个人信息" style="rounded=0;whiteSpace=wrap;html=1;" vertex="1" parent="WIyWlLk6GJQsqaUBKTNV-1">
          <mxGeometry x="-130" y="40" width="70" height="30" as="geometry" />
        </mxCell>
        <mxCell id="ZlSOmMxpBwmq8ZwxbkZ--21" value="修改个人信息" style="rounded=0;whiteSpace=wrap;html=1;" vertex="1" parent="WIyWlLk6GJQsqaUBKTNV-1">
          <mxGeometry x="-130" y="90" width="70" height="30" as="geometry" />
        </mxCell>
        <mxCell id="ZlSOmMxpBwmq8ZwxbkZ--22" value="修改个人信息" style="rounded=0;whiteSpace=wrap;html=1;" vertex="1" parent="WIyWlLk6GJQsqaUBKTNV-1">
          <mxGeometry x="-130" y="140" width="70" height="30" as="geometry" />
        </mxCell>
        <mxCell id="ZlSOmMxpBwmq8ZwxbkZ--23" value="修改个人信息" style="rounded=0;whiteSpace=wrap;html=1;" vertex="1" parent="WIyWlLk6GJQsqaUBKTNV-1">
          <mxGeometry x="-130" y="190" width="70" height="30" as="geometry" />
        </mxCell>
        <mxCell id="ZlSOmMxpBwmq8ZwxbkZ--44" style="edgeStyle=orthogonalEdgeStyle;rounded=0;orthogonalLoop=1;jettySize=auto;html=1;exitX=0.5;exitY=1;exitDx=0;exitDy=0;entryX=0.5;entryY=0;entryDx=0;entryDy=0;" edge="1" parent="WIyWlLk6GJQsqaUBKTNV-1" source="ZlSOmMxpBwmq8ZwxbkZ--36" target="ZlSOmMxpBwmq8ZwxbkZ--43">
          <mxGeometry relative="1" as="geometry" />
        </mxCell>
        <mxCell id="ZlSOmMxpBwmq8ZwxbkZ--36" value="创建公益机构" style="rounded=0;whiteSpace=wrap;html=1;" vertex="1" parent="WIyWlLk6GJQsqaUBKTNV-1">
          <mxGeometry x="145" y="260" width="70" height="30" as="geometry" />
        </mxCell>
        <mxCell id="ZlSOmMxpBwmq8ZwxbkZ--45" style="edgeStyle=orthogonalEdgeStyle;rounded=0;orthogonalLoop=1;jettySize=auto;html=1;exitX=0.5;exitY=1;exitDx=0;exitDy=0;entryX=0.5;entryY=0;entryDx=0;entryDy=0;" edge="1" parent="WIyWlLk6GJQsqaUBKTNV-1" source="ZlSOmMxpBwmq8ZwxbkZ--37" target="ZlSOmMxpBwmq8ZwxbkZ--38">
          <mxGeometry relative="1" as="geometry" />
        </mxCell>
        <mxCell id="ZlSOmMxpBwmq8ZwxbkZ--37" value="查看公益机构" style="rounded=0;whiteSpace=wrap;html=1;" vertex="1" parent="WIyWlLk6GJQsqaUBKTNV-1">
          <mxGeometry x="35" y="260" width="70" height="30" as="geometry" />
        </mxCell>
        <mxCell id="ZlSOmMxpBwmq8ZwxbkZ--38" value="加入公益机构" style="rounded=0;whiteSpace=wrap;html=1;" vertex="1" parent="WIyWlLk6GJQsqaUBKTNV-1">
          <mxGeometry x="35" y="330" width="70" height="30" as="geometry" />
        </mxCell>
        <mxCell id="ZlSOmMxpBwmq8ZwxbkZ--59" style="edgeStyle=orthogonalEdgeStyle;rounded=0;orthogonalLoop=1;jettySize=auto;html=1;exitX=1;exitY=0.5;exitDx=0;exitDy=0;entryX=1;entryY=0.5;entryDx=0;entryDy=0;" edge="1" parent="WIyWlLk6GJQsqaUBKTNV-1" source="ZlSOmMxpBwmq8ZwxbkZ--43" target="ZlSOmMxpBwmq8ZwxbkZ--53">
          <mxGeometry relative="1" as="geometry" />
        </mxCell>
        <mxCell id="ZlSOmMxpBwmq8ZwxbkZ--60" style="edgeStyle=orthogonalEdgeStyle;rounded=0;orthogonalLoop=1;jettySize=auto;html=1;exitX=1;exitY=0.5;exitDx=0;exitDy=0;entryX=1;entryY=0.5;entryDx=0;entryDy=0;" edge="1" parent="WIyWlLk6GJQsqaUBKTNV-1" source="ZlSOmMxpBwmq8ZwxbkZ--43" target="ZlSOmMxpBwmq8ZwxbkZ--54">
          <mxGeometry relative="1" as="geometry" />
        </mxCell>
        <mxCell id="ZlSOmMxpBwmq8ZwxbkZ--61" style="edgeStyle=orthogonalEdgeStyle;rounded=0;orthogonalLoop=1;jettySize=auto;html=1;exitX=1;exitY=0.5;exitDx=0;exitDy=0;entryX=1;entryY=0.5;entryDx=0;entryDy=0;" edge="1" parent="WIyWlLk6GJQsqaUBKTNV-1" source="ZlSOmMxpBwmq8ZwxbkZ--43" target="ZlSOmMxpBwmq8ZwxbkZ--55">
          <mxGeometry relative="1" as="geometry" />
        </mxCell>
        <mxCell id="ZlSOmMxpBwmq8ZwxbkZ--62" style="edgeStyle=orthogonalEdgeStyle;rounded=0;orthogonalLoop=1;jettySize=auto;html=1;exitX=1;exitY=0.5;exitDx=0;exitDy=0;entryX=1;entryY=0.5;entryDx=0;entryDy=0;" edge="1" parent="WIyWlLk6GJQsqaUBKTNV-1" source="ZlSOmMxpBwmq8ZwxbkZ--43" target="ZlSOmMxpBwmq8ZwxbkZ--56">
          <mxGeometry relative="1" as="geometry" />
        </mxCell>
        <mxCell id="ZlSOmMxpBwmq8ZwxbkZ--43" value="管理公益机构" style="rounded=0;whiteSpace=wrap;html=1;" vertex="1" parent="WIyWlLk6GJQsqaUBKTNV-1">
          <mxGeometry x="145" y="330" width="70" height="30" as="geometry" />
        </mxCell>
        <mxCell id="ZlSOmMxpBwmq8ZwxbkZ--70" style="edgeStyle=orthogonalEdgeStyle;rounded=0;orthogonalLoop=1;jettySize=auto;html=1;exitX=1;exitY=0.5;exitDx=0;exitDy=0;entryX=0;entryY=0.5;entryDx=0;entryDy=0;startArrow=classic;startFill=1;endArrow=none;endFill=0;" edge="1" parent="WIyWlLk6GJQsqaUBKTNV-1" source="ZlSOmMxpBwmq8ZwxbkZ--46" target="ZlSOmMxpBwmq8ZwxbkZ--53">
          <mxGeometry relative="1" as="geometry" />
        </mxCell>
        <mxCell id="ZlSOmMxpBwmq8ZwxbkZ--71" style="edgeStyle=orthogonalEdgeStyle;rounded=0;orthogonalLoop=1;jettySize=auto;html=1;exitX=1;exitY=0.5;exitDx=0;exitDy=0;entryX=0;entryY=0.5;entryDx=0;entryDy=0;startArrow=classic;startFill=1;endArrow=none;endFill=0;" edge="1" parent="WIyWlLk6GJQsqaUBKTNV-1" source="ZlSOmMxpBwmq8ZwxbkZ--46" target="ZlSOmMxpBwmq8ZwxbkZ--54">
          <mxGeometry relative="1" as="geometry" />
        </mxCell>
        <mxCell id="ZlSOmMxpBwmq8ZwxbkZ--72" style="edgeStyle=orthogonalEdgeStyle;rounded=0;orthogonalLoop=1;jettySize=auto;html=1;exitX=1;exitY=0.5;exitDx=0;exitDy=0;entryX=0;entryY=0.5;entryDx=0;entryDy=0;startArrow=classic;startFill=1;endArrow=none;endFill=0;" edge="1" parent="WIyWlLk6GJQsqaUBKTNV-1" source="ZlSOmMxpBwmq8ZwxbkZ--46" target="ZlSOmMxpBwmq8ZwxbkZ--55">
          <mxGeometry relative="1" as="geometry" />
        </mxCell>
        <mxCell id="ZlSOmMxpBwmq8ZwxbkZ--73" style="edgeStyle=orthogonalEdgeStyle;rounded=0;orthogonalLoop=1;jettySize=auto;html=1;exitX=1;exitY=0.5;exitDx=0;exitDy=0;entryX=0;entryY=0.5;entryDx=0;entryDy=0;startArrow=classic;startFill=1;endArrow=none;endFill=0;" edge="1" parent="WIyWlLk6GJQsqaUBKTNV-1" source="ZlSOmMxpBwmq8ZwxbkZ--46" target="ZlSOmMxpBwmq8ZwxbkZ--56">
          <mxGeometry relative="1" as="geometry" />
        </mxCell>
        <mxCell id="ZlSOmMxpBwmq8ZwxbkZ--46" value="公益&lt;div&gt;机构表&lt;/div&gt;" style="shape=dataStorage;whiteSpace=wrap;html=1;fixedSize=1;" vertex="1" parent="WIyWlLk6GJQsqaUBKTNV-1">
          <mxGeometry x="20" y="410" width="80" height="40" as="geometry" />
        </mxCell>
        <mxCell id="ZlSOmMxpBwmq8ZwxbkZ--53" value="修改机构信息" style="rounded=0;whiteSpace=wrap;html=1;" vertex="1" parent="WIyWlLk6GJQsqaUBKTNV-1">
          <mxGeometry x="145" y="400" width="70" height="30" as="geometry" />
        </mxCell>
        <mxCell id="ZlSOmMxpBwmq8ZwxbkZ--54" value="管理机构成员" style="rounded=0;whiteSpace=wrap;html=1;" vertex="1" parent="WIyWlLk6GJQsqaUBKTNV-1">
          <mxGeometry x="145" y="450" width="70" height="30" as="geometry" />
        </mxCell>
        <mxCell id="ZlSOmMxpBwmq8ZwxbkZ--79" style="edgeStyle=orthogonalEdgeStyle;rounded=0;orthogonalLoop=1;jettySize=auto;html=1;exitX=0;exitY=0.5;exitDx=0;exitDy=0;" edge="1" parent="WIyWlLk6GJQsqaUBKTNV-1" source="ZlSOmMxpBwmq8ZwxbkZ--55" target="ZlSOmMxpBwmq8ZwxbkZ--77">
          <mxGeometry relative="1" as="geometry" />
        </mxCell>
        <mxCell id="ZlSOmMxpBwmq8ZwxbkZ--55" value="管理机构活动" style="rounded=0;whiteSpace=wrap;html=1;" vertex="1" parent="WIyWlLk6GJQsqaUBKTNV-1">
          <mxGeometry x="145" y="500" width="70" height="30" as="geometry" />
        </mxCell>
        <mxCell id="ZlSOmMxpBwmq8ZwxbkZ--56" value="修改个人信息" style="rounded=0;whiteSpace=wrap;html=1;" vertex="1" parent="WIyWlLk6GJQsqaUBKTNV-1">
          <mxGeometry x="145" y="550" width="70" height="30" as="geometry" />
        </mxCell>
        <mxCell id="ZlSOmMxpBwmq8ZwxbkZ--69" style="edgeStyle=orthogonalEdgeStyle;rounded=0;orthogonalLoop=1;jettySize=auto;html=1;exitX=0.5;exitY=1;exitDx=0;exitDy=0;entryX=0.618;entryY=-0.022;entryDx=0;entryDy=0;entryPerimeter=0;" edge="1" parent="WIyWlLk6GJQsqaUBKTNV-1" source="ZlSOmMxpBwmq8ZwxbkZ--38" target="ZlSOmMxpBwmq8ZwxbkZ--46">
          <mxGeometry relative="1" as="geometry" />
        </mxCell>
        <mxCell id="ZlSOmMxpBwmq8ZwxbkZ--77" value="&lt;div&gt;机构&lt;/div&gt;&lt;div&gt;成员表&lt;/div&gt;" style="shape=dataStorage;whiteSpace=wrap;html=1;fixedSize=1;" vertex="1" parent="WIyWlLk6GJQsqaUBKTNV-1">
          <mxGeometry x="20" y="470" width="80" height="40" as="geometry" />
        </mxCell>
        <mxCell id="ZlSOmMxpBwmq8ZwxbkZ--81" style="edgeStyle=orthogonalEdgeStyle;rounded=0;orthogonalLoop=1;jettySize=auto;html=1;exitX=1;exitY=0.5;exitDx=0;exitDy=0;entryX=0;entryY=0.5;entryDx=0;entryDy=0;endArrow=none;endFill=0;startArrow=classic;startFill=1;" edge="1" parent="WIyWlLk6GJQsqaUBKTNV-1" source="ZlSOmMxpBwmq8ZwxbkZ--80" target="ZlSOmMxpBwmq8ZwxbkZ--56">
          <mxGeometry relative="1" as="geometry" />
        </mxCell>
        <mxCell id="ZlSOmMxpBwmq8ZwxbkZ--80" value="公益&lt;div&gt;活动表&lt;/div&gt;" style="shape=dataStorage;whiteSpace=wrap;html=1;fixedSize=1;" vertex="1" parent="WIyWlLk6GJQsqaUBKTNV-1">
          <mxGeometry x="20" y="530" width="80" height="40" as="geometry" />
        </mxCell>
        <mxCell id="ZlSOmMxpBwmq8ZwxbkZ--84" style="edgeStyle=orthogonalEdgeStyle;rounded=0;orthogonalLoop=1;jettySize=auto;html=1;exitX=0.5;exitY=1;exitDx=0;exitDy=0;entryX=0;entryY=0.5;entryDx=0;entryDy=0;" edge="1" parent="WIyWlLk6GJQsqaUBKTNV-1" source="ZlSOmMxpBwmq8ZwxbkZ--82" target="ZlSOmMxpBwmq8ZwxbkZ--46">
          <mxGeometry relative="1" as="geometry" />
        </mxCell>
        <mxCell id="ZlSOmMxpBwmq8ZwxbkZ--85" style="edgeStyle=orthogonalEdgeStyle;rounded=0;orthogonalLoop=1;jettySize=auto;html=1;exitX=0.5;exitY=1;exitDx=0;exitDy=0;entryX=0;entryY=0.5;entryDx=0;entryDy=0;" edge="1" parent="WIyWlLk6GJQsqaUBKTNV-1" source="ZlSOmMxpBwmq8ZwxbkZ--82" target="ZlSOmMxpBwmq8ZwxbkZ--80">
          <mxGeometry relative="1" as="geometry" />
        </mxCell>
        <mxCell id="ZlSOmMxpBwmq8ZwxbkZ--82" value="搜索信息" style="rounded=0;whiteSpace=wrap;html=1;" vertex="1" parent="WIyWlLk6GJQsqaUBKTNV-1">
          <mxGeometry x="-80" y="260" width="70" height="30" as="geometry" />
        </mxCell>
      </root>
    </mxGraphModel>
  </diagram>
</mxfile>
